<?xml version="1.0" encoding="utf-8"?>
<!-- Generator: Adobe Illustrator 21.0.2, SVG Export Plug-In . SVG Version: 6.00 Build 0)  -->
<svg version="1.1" id="Layer_1" xmlns="http://www.w3.org/2000/svg" xmlns:xlink="http://www.w3.org/1999/xlink" x="0px" y="0px"
	 viewBox="0 0 100 100" style="enable-background:new 0 0 100 100;" xml:space="preserve">
<path d="M93,12H39.7l-7.5-5.6C31.9,6.1,31.4,6,31,6H7C5.9,6,5,6.9,5,8v84c0,1.1,0.9,2,2,2h16h70c1.1,0,2-0.9,2-2V36V14
	C95,12.9,94.1,12,93,12z M9,10h21.3l7.5,5.6c0.3,0.3,0.8,0.4,1.2,0.4h52v18H55.7l-7.5-5.6C47.9,28.1,47.4,28,47,28H23
	c-1.1,0-2,0.9-2,2v60H9V10z M91,90H25V32h21.3l7.5,5.6c0.3,0.3,0.8,0.4,1.2,0.4h36V90z"/>
</svg>
